<svg viewBox="0 0 29 17" version="1.1" xmlns="http://www.w3.org/2000/svg"><path d="M25.634,10.374l0,-3.937l-21.809,0l0,3.937l21.809,0Z" fill="#fff"/><path d="M16.857,8.5l12.143,-4.537c-0.479,-0.448 -0.959,-0.799 -1.469,-0.991c-0.481,-0.224 -1.024,-0.32 -1.567,-0.32c-0.831,0 -2.236,0.32 -4.281,0.991c-2.014,0.639 -5.017,1.758 -8.948,3.323c-1.343,-0.575 -2.716,-0.99 -4.09,-1.278c-1.406,-0.256 -2.109,-0.479 -2.109,-0.607l0,-0.064c0,-0.032 -0.033,-0.032 -0.033,-0.063c0.191,-0.352 0.32,-0.672 0.416,-0.991c0.095,-0.32 0.127,-0.639 0.127,-0.926c0,-0.864 -0.319,-1.599 -0.958,-2.173c-0.639,-0.576 -1.438,-0.864 -2.429,-0.864c-0.99,0 -1.821,0.32 -2.428,0.927c-0.64,0.607 -0.959,1.406 -0.959,2.364c0,1.023 0.384,1.823 1.182,2.366c0.799,0.543 1.95,0.798 3.452,0.798l1.278,0c1.374,0 2.364,0.16 3.003,0.447c0.639,0.32 1.055,0.832 1.31,1.598c-0.255,0.767 -0.702,1.278 -1.31,1.598c-0.607,0.288 -1.629,0.448 -3.003,0.448l-1.278,0c-1.502,0 -2.653,0.287 -3.452,0.83c-0.798,0.544 -1.182,1.31 -1.182,2.333c0,0.958 0.319,1.757 0.959,2.365c0.607,0.606 1.438,0.926 2.428,0.926c0.991,0 1.79,-0.287 2.429,-0.863c0.639,-0.575 0.958,-1.31 0.958,-2.173c0,-0.287 -0.032,-0.606 -0.127,-0.894c-0.096,-0.32 -0.225,-0.671 -0.416,-1.023c0,0 -0.032,0 -0.032,-0.031l0,-0.096c0,-0.129 0.704,-0.32 2.109,-0.608c1.374,-0.287 2.748,-0.703 4.09,-1.278c3.802,1.534 6.775,2.62 8.851,3.291c2.077,0.672 3.548,1.024 4.379,1.024c0.575,0 1.086,-0.097 1.566,-0.321c0.478,-0.191 0.99,-0.543 1.469,-0.99l-12.143,-4.538l0.065,0Zm-11.375,-3.706c-0.416,0.415 -0.96,0.607 -1.63,0.607c-0.735,0 -1.311,-0.224 -1.79,-0.639c-0.448,-0.416 -0.671,-0.959 -0.671,-1.598c-0,-0.639 0.223,-1.151 0.639,-1.534c0.448,-0.416 0.991,-0.607 1.693,-0.607c0.672,0 1.247,0.224 1.694,0.639c0.448,0.415 0.672,0.927 0.672,1.566c-0,0.639 -0.192,1.15 -0.607,1.566Zm-0.065,10.545c-0.447,0.415 -1.022,0.639 -1.694,0.639c-0.702,0 -1.245,-0.192 -1.693,-0.608c-0.416,-0.383 -0.639,-0.894 -0.639,-1.533c-0,-0.64 0.223,-1.183 0.703,-1.599c0.479,-0.414 1.054,-0.638 1.758,-0.638c0.67,0 1.182,0.191 1.598,0.607c0.415,0.416 0.639,0.927 0.639,1.566c-0,0.638 -0.224,1.15 -0.672,1.566Z" fill="#000"/></svg>