<svg viewBox="0 0 17 29" version="1.1" xmlns="http://www.w3.org/2000/svg"><rect x="6.437" y="3.366" width="3.937" height="21.809" fill="#fff"/><path d="M8.5,12.143l-4.537,-12.143c-0.448,0.479 -0.799,0.959 -0.991,1.469c-0.224,0.481 -0.32,1.024 -0.32,1.567c0,0.831 0.32,2.236 0.991,4.281c0.639,2.014 1.758,5.017 3.323,8.948c-0.575,1.343 -0.99,2.716 -1.278,4.09c-0.256,1.406 -0.479,2.109 -0.607,2.109l-0.064,0c-0.032,0 -0.032,0.033 -0.063,0.033c-0.352,-0.191 -0.672,-0.32 -0.991,-0.416c-0.32,-0.095 -0.639,-0.127 -0.926,-0.127c-0.864,-0 -1.599,0.319 -2.173,0.958c-0.576,0.639 -0.864,1.438 -0.864,2.429c0,0.99 0.32,1.821 0.927,2.428c0.607,0.64 1.406,0.959 2.364,0.959c1.023,-0 1.823,-0.384 2.366,-1.182c0.543,-0.799 0.798,-1.95 0.798,-3.452l0,-1.278c0,-1.374 0.16,-2.364 0.447,-3.003c0.32,-0.639 0.832,-1.055 1.598,-1.31c0.767,0.255 1.278,0.702 1.598,1.31c0.288,0.607 0.448,1.629 0.448,3.003l-0,1.278c-0,1.502 0.287,2.653 0.83,3.452c0.544,0.798 1.31,1.182 2.333,1.182c0.958,-0 1.757,-0.319 2.365,-0.959c0.606,-0.607 0.926,-1.438 0.926,-2.428c0,-0.991 -0.287,-1.79 -0.863,-2.429c-0.575,-0.639 -1.31,-0.958 -2.173,-0.958c-0.287,-0 -0.606,0.032 -0.894,0.127c-0.32,0.096 -0.671,0.225 -1.023,0.416c0,-0 0,0.032 -0.031,0.032l-0.096,0c-0.129,0 -0.32,-0.704 -0.608,-2.109c-0.287,-1.374 -0.703,-2.748 -1.278,-4.09c1.534,-3.802 2.62,-6.775 3.291,-8.851c0.672,-2.077 1.024,-3.548 1.024,-4.379c-0,-0.575 -0.097,-1.086 -0.321,-1.566c-0.191,-0.478 -0.543,-0.99 -0.99,-1.469l-4.538,12.143l0,-0.065Zm-3.706,11.375c0.415,0.416 0.607,0.96 0.607,1.63c-0,0.735 -0.224,1.311 -0.639,1.79c-0.416,0.448 -0.959,0.671 -1.598,0.671c-0.639,0 -1.151,-0.223 -1.534,-0.639c-0.416,-0.448 -0.607,-0.991 -0.607,-1.693c0,-0.672 0.224,-1.247 0.639,-1.694c0.415,-0.448 0.927,-0.672 1.566,-0.672c0.639,0 1.15,0.192 1.566,0.607Zm10.545,0.065c0.415,0.447 0.639,1.022 0.639,1.694c-0,0.702 -0.192,1.245 -0.608,1.693c-0.383,0.416 -0.894,0.639 -1.533,0.639c-0.64,0 -1.183,-0.223 -1.599,-0.703c-0.414,-0.479 -0.638,-1.054 -0.638,-1.758c0,-0.67 0.191,-1.182 0.607,-1.598c0.416,-0.415 0.927,-0.639 1.566,-0.639c0.638,0 1.15,0.224 1.566,0.672Z" fill="#000"/></svg>
